<?xml version="1.0" encoding="utf-8"?>
<svg id="cr_logo_FINAL" image-rendering="auto" baseProfile="basic" version="1.1" x="0px" y="0px" width="500" height="600" xmlns="http://www.w3.org/2000/svg" xmlns:xlink="http://www.w3.org/1999/xlink">
  <defs>
    <radialGradient id="Gradient_1" gradientUnits="userSpaceOnUse" cx="0" cy="0" r="168.25" fx="0" fy="0" gradientTransform="matrix(1 0 0 .108 171.5 7.25)" spreadMethod="pad">
      <stop offset="0%" stop-color="#EEE"/>
      <stop offset="100%" stop-color="#FFF"/>
    </radialGradient>
  </defs>
  <g id="Scene-1r1" overflow="visible">
    <g>
      <g transform="translate(238.1 242.95)" id="spind60r1">
        <g mask="url(#mask_2)">
          <g>
            <g transform="matrix(0 -1 1 0 -13.85 198.45)" id="arc-mask1">
              <g>
                <g id="Layer8_0_FILL1">
                  <path fill="#F37B20" stroke="none" d="M373.05 26Q373.05 15.2 365.35 7.7 357.85 0 347.1 0 336.3 0 328.8 7.7 321.1 15.2 321.1 26 321.1 81.7 281.55 121 242.25 160.6 186.55 160.6 130.85 160.6 91.5 121 55.913 85.638 52.35 37 51.95 31.582 51.95 26 51.95 15.2 44.25 7.7 36.75 0 26 0 15.25 0 7.75 7.7 0 15.2 0 26 0 66.753 15.25 101.25 28.910 132.133 54.8 158 109.3 212.55 186.55 212.55 263.55 212.55 318.3 158 373.05 103.25 373.05 26Z"/>
                </g>
              </g>
              <animateTransform attributeName="transform" additive="replace" type="translate" dur="1.667s" keyTimes="0;.23299;.75;1" values="12.117,11.902;12.117,11.902;12.206,11.931;12.206,11.931" fill="freeze"/>
              <animateTransform attributeName="transform" additive="sum" type="rotate" dur="1.667s" keyTimes="0;.23299;.75;1" values="-90,0,0;-90,0,0;-116.814,0,0;-116.814,0,0" fill="freeze"/>
              <animateTransform attributeName="transform" additive="sum" type="scale" dur="1.667s" keyTimes="0;.23299;.75;1" values="1,1;1,1;.996,.996;.996,.996" fill="freeze"/>
              <animateTransform attributeName="transform" additive="sum" type="translate" dur="1.667s" keyTimes="0;.23299;.75;1" values="-186.5,-25.95;-186.5,-25.95;-186.45,-25.95;-186.45,-25.95" fill="freeze"/>
            </g>
            <animate attributeName="display" fill="freeze" repeatCount="1" dur="1.667s" keyTimes="0;.767;1" values="inline;none;none"/>
          </g>
        </g>
        <mask id="mask_2">
          <g>
            <g>
              <g transform="matrix(0 1 -1 0 38.15 -174.6)" id="arc1">
                <g>
                  <g id="Layer7_0_FILL1">
                    <path fill="#FFF" stroke="none" d="M281.6 121Q242.3 160.6 186.6 160.6 130.9 160.6 91.55 121 55.95 85.65 52.4 37 52 31.6 52 26 52 15.2 44.3 7.7 36.8 0 26.05 0 15.3 0 7.8 7.7 .05 15.2 .05 26 .05 66.75 15.3 101.25 28.95 132.15 54.85 158 109.35 212.55 186.6 212.55 263.6 212.55 318.35 158 329.8 146.55 338.85 134.15L300.35 98.25Q292.45 110.25 281.6 121Z" fill-opacity="1"/>
                  </g>
                </g>
              </g>
              <animate attributeName="display" fill="freeze" repeatCount="1" dur="1.667s" keyTimes="0;.767;1" values="inline;none;none"/>
            </g>
          </g>
        </mask>
        <g mask="url(#mask_1)">
          <g>
            <g transform="matrix(.866 .5 -.5 .866 -136.45 -103.9)" id="arc-mask2">
              <g>
                <g id="Layer8_0_FILL2">
                  <path fill="#F37B20" stroke="none" d="M373.05 26Q373.05 15.2 365.35 7.7 357.85 0 347.1 0 336.3 0 328.8 7.7 321.1 15.2 321.1 26 321.1 81.7 281.55 121 242.25 160.6 186.55 160.6 130.85 160.6 91.5 121 55.913 85.638 52.35 37 51.95 31.582 51.95 26 51.95 15.2 44.25 7.7 36.75 0 26 0 15.25 0 7.75 7.7 0 15.2 0 26 0 66.753 15.25 101.25 28.910 132.133 54.8 158 109.3 212.55 186.55 212.55 263.55 212.55 318.3 158 373.05 103.25 373.05 26Z"/>
                </g>
              </g>
              <animateTransform attributeName="transform" additive="replace" type="translate" dur="1.667s" keyTimes="0;.23299;.75;1" values="12.113,11.963;12.113,11.963;12.171,12.091;12.171,12.091" fill="freeze"/>
              <animateTransform attributeName="transform" additive="sum" type="rotate" dur="1.667s" keyTimes="0;.23299;.75;1" values="30.001,0,0;30.001,0,0;-5.779,0,0;-5.779,0,0" fill="freeze"/>
              <animateTransform attributeName="transform" additive="sum" type="scale" dur="1.667s" keyTimes="0;.23299;.75;1" values="1,.999;1,.999;.998,.998;.998,.998" fill="freeze"/>
              <animateTransform attributeName="transform" additive="sum" type="translate" dur="1.667s" keyTimes="0;.23299;.75;1" values="-186.6,-26.05;-186.6,-26.05;-186.5,-26.1;-186.5,-26.1" fill="freeze"/>
            </g>
            <animate attributeName="display" fill="freeze" repeatCount="1" dur="1.667s" keyTimes="0;.767;1" values="inline;none;none"/>
          </g>
        </g>
        <mask id="mask_1">
          <g>
            <g>
              <g transform="matrix(-.866 -.5 .5 -.866 160.65 127.9)" id="arc2">
                <g>
                  <g id="Layer7_0_FILL2">
                    <path fill="#FFF" stroke="none" d="M281.6 121Q242.3 160.6 186.6 160.6 130.9 160.6 91.55 121 55.95 85.65 52.4 37 52 31.6 52 26 52 15.2 44.3 7.7 36.8 0 26.05 0 15.3 0 7.8 7.7 .05 15.2 .05 26 .05 66.75 15.3 101.25 28.95 132.15 54.85 158 109.35 212.55 186.6 212.55 263.6 212.55 318.35 158 329.8 146.55 338.85 134.15L300.35 98.25Q292.45 110.25 281.6 121Z" fill-opacity="1"/>
                  </g>
                </g>
              </g>
              <animate attributeName="display" fill="freeze" repeatCount="1" dur="1.667s" keyTimes="0;.767;1" values="inline;none;none"/>
            </g>
          </g>
        </mask>
        <g mask="url(#mask_)">
          <g>
            <g transform="matrix(-.866 .5 -.5 -.866 186.75 -58.75)" id="arc-mask3">
              <g>
                <g id="Layer8_0_FILL3">
                  <path fill="#F37B20" stroke="none" d="M373.05 26Q373.05 15.2 365.35 7.7 357.85 0 347.1 0 336.3 0 328.8 7.7 321.1 15.2 321.1 26 321.1 81.7 281.55 121 242.25 160.6 186.55 160.6 130.85 160.6 91.5 121 55.913 85.638 52.35 37 51.95 31.582 51.95 26 51.95 15.2 44.25 7.7 36.75 0 26 0 15.25 0 7.75 7.7 0 15.2 0 26 0 66.753 15.25 101.25 28.910 132.133 54.8 158 109.3 212.55 186.55 212.55 263.55 212.55 318.3 158 373.05 103.25 373.05 26Z"/>
                </g>
              </g>
              <animateTransform attributeName="transform" additive="replace" type="translate" dur="1.667s" keyTimes="0;.23299;.75;1" values="12.206,12.018;12.206,12.018;12.379,11.923;12.379,11.923" fill="freeze"/>
              <animateTransform attributeName="transform" additive="sum" type="rotate" dur="1.667s" keyTimes="0;.23299;.75;1" values="150,0,0;150,0,0;114.073,0,0;114.073,0,0" fill="freeze"/>
              <animateTransform attributeName="transform" additive="sum" type="scale" dur="1.667s" keyTimes="0;.23299;.75;1" values="1,.999;1,.999;.997,.997;.997,.997" fill="freeze"/>
              <animateTransform attributeName="transform" additive="sum" type="translate" dur="1.667s" keyTimes="0;.23299;.75;1" values="-186.55,-25.95;-186.55,-25.95;-186.45,-25.95;-186.45,-25.95" fill="freeze"/>
            </g>
            <animate attributeName="display" fill="freeze" repeatCount="1" dur="1.667s" keyTimes="0;.767;1" values="inline;none;none"/>
          </g>
        </g>
        <mask id="mask_">
          <g>
            <g>
              <g transform="matrix(.866 -.5 .5 .866 -162.25 82.75)" id="arc3">
                <g>
                  <g id="Layer7_0_FILL3">
                    <path fill="#FFF" stroke="none" d="M281.6 121Q242.3 160.6 186.6 160.6 130.9 160.6 91.55 121 55.95 85.65 52.4 37 52 31.6 52 26 52 15.2 44.3 7.7 36.8 0 26.05 0 15.3 0 7.8 7.7 .05 15.2 .05 26 .05 66.75 15.3 101.25 28.95 132.15 54.85 158 109.35 212.55 186.6 212.55 263.6 212.55 318.35 158 329.8 146.55 338.85 134.15L300.35 98.25Q292.45 110.25 281.6 121Z" fill-opacity="1"/>
                  </g>
                </g>
              </g>
              <animate attributeName="display" fill="freeze" repeatCount="1" dur="1.667s" keyTimes="0;.767;1" values="inline;none;none"/>
            </g>
          </g>
        </mask>
        <animateTransform attributeName="transform" additive="replace" type="translate" dur="1.667s" keyTimes="0;.233;.25;.267;.283;.3;.317;.333;.35;.367;.383;.4;.417;.433;.45;.467;.483;.5;.517;.533;.55;.567;.583;.6;.617;.633;.65;.667;.683;.7;.717;.733;.75;1" values="249.8,253.8;249.8,253.8;249.782,253.915;249.821,253.878;249.766,253.92;249.892,253.885;249.854,253.901;249.812,253.815;249.838,253.871;249.867,253.82;249.835,253.883;249.793,253.801;249.812,253.826;249.755,253.877;249.802,253.845;249.826,253.87;249.767,253.802;249.796,253.908;249.804,253.801;249.856,253.932;249.801,253.769;249.773,253.92;249.796,253.804;249.798,253.824;249.779,253.877;249.799,253.806;249.802,253.816;249.809,253.808;249.811,253.792;249.784,253.787;249.766,253.789;249.821,253.725;249.776,253.884;249.776,253.884" fill="freeze"/>
        <animateTransform attributeName="transform" additive="sum" type="rotate" dur="1.667s" keyTimes="0;.233;.25;.267;.283;.3;.317;.333;.35;.367;.383;.4;.417;.433;.45;.467;.483;.5;.517;.533;.55;.567;.583;.6;.617;.633;.65;.667;.683;.7;.717;.733;.75;1" values="0,0,0;0,0,0;5.549,0,0;11.29,0,0;17.034,0,0;22.781,0,0;28.342,0,0;34.094,0,0;39.849,0,0;45.604,0,0;51.169,0,0;56.922,0,0;62.673,0,0;68.422,0,0;73.98,0,0;79.727,0,0;85.466,0,0;91.015,0,0;96.75,0,0;102.306,0,0;108.051,0,0;113.798,0,0;119.55,0,0;125.114,0,0;130.868,0,0;136.622,0,0;142.375,0,0;147.939,0,0;153.694,0,0;159.442,0,0;165.188,0,0;170.743,0,0;176.482,0,0;176.482,0,0" fill="freeze"/>
        <animateTransform attributeName="transform" additive="sum" type="scale" dur="1.667s" keyTimes="0;.233;.25;.267;.283;.3;.317;.417;.433;.45;.467;.483;.5;.517;.533;.55;.567;.583;.683;.7;.717;.733;.75;1" values="1,1;1,1;1,.999;1,.999;.998,.998;.998,.998;.997,.997;.997,.997;.998,.998;.998,.998;1,.999;1,.999;1,1;1,1;1,.999;.998,.998;.998,.998;.997,.997;.997,.997;.998,.998;.998,.998;1,.999;1,1;1,1" fill="freeze"/>
        <animateTransform attributeName="transform" additive="sum" type="translate" dur="1.667s" keyTimes="0;.233;.25;.267;.283;.3;.317;.333;.35;.367;.383;.4;.417;.433;.45;.467;.483;.5;.517;.533;.55;.567;.583;.6;.617;.633;.65;.667;.683;.7;.717;.733;.75;1" values="-11.7,-10.85;-11.7,-10.85;-11.7,-11;-11.8,-10.95;-11.7,-10.95;-11.8,-10.9;-11.8,-10.9;-11.75,-10.9;-11.85,-10.85;-11.85,-10.8;-11.85,-10.85;-11.7,-10.8;-11.75,-10.85;-11.8,-10.85;-11.85,-10.8;-11.75,-10.8;-11.8,-10.75;-11.85,-10.75;-11.7,-10.75;-11.8,-10.75;-11.65,-10.8;-11.85,-10.8;-11.75,-10.75;-11.75,-10.75;-11.7,-10.8;-11.7,-10.7;-11.7,-10.7;-11.6,-10.75;-11.65,-10.8;-11.65,-10.8;-11.65,-10.75;-11.65,-10.85;-11.6,-10.65;-11.6,-10.65" fill="freeze"/>
      </g>
      <animate attributeName="display" fill="freeze" repeatCount="1" dur="1.667s" keyTimes="0;.767;1" values="inline;none;none"/>
    </g>
    <g>
      <g transform="translate(238.1 242.95)" id="spind60r1">
        <g mask="url(#mask_2)">
          <g>
            <g transform="matrix(0 -1 1 0 -13.85 198.45)" id="arc-mask4">
              <g>
                <g id="Layer8_0_FILL4">
                  <path fill="#F37B20" stroke="none" d="M373.05 26Q373.05 15.2 365.35 7.7 357.85 0 347.1 0 336.3 0 328.8 7.7 321.1 15.2 321.1 26 321.1 81.7 281.55 121 242.25 160.6 186.55 160.6 130.85 160.6 91.5 121 55.913 85.638 52.35 37 51.95 31.582 51.95 26 51.95 15.2 44.25 7.7 36.75 0 26 0 15.25 0 7.75 7.7 0 15.2 0 26 0 66.753 15.25 101.25 28.910 132.133 54.8 158 109.3 212.55 186.55 212.55 263.55 212.55 318.3 158 373.05 103.25 373.05 26Z"/>
                </g>
              </g>
              <animateTransform attributeName="transform" additive="replace" type="translate" dur="1.667s" keyTimes="0;.23299;.75;1" values="12.117,11.902;12.117,11.902;12.206,11.931;12.206,11.931" fill="freeze"/>
              <animateTransform attributeName="transform" additive="sum" type="rotate" dur="1.667s" keyTimes="0;.23299;.75;1" values="-90,0,0;-90,0,0;-116.814,0,0;-116.814,0,0" fill="freeze"/>
              <animateTransform attributeName="transform" additive="sum" type="scale" dur="1.667s" keyTimes="0;.23299;.75;1" values="1,1;1,1;.996,.996;.996,.996" fill="freeze"/>
              <animateTransform attributeName="transform" additive="sum" type="translate" dur="1.667s" keyTimes="0;.23299;.75;1" values="-186.5,-25.95;-186.5,-25.95;-186.45,-25.95;-186.45,-25.95" fill="freeze"/>
            </g>
            <animate attributeName="display" fill="freeze" repeatCount="1" dur="1.667s" keyTimes="0;.767;1" values="inline;none;none"/>
          </g>
        </g>
        <mask id="mask_2">
          <g>
            <g>
              <g transform="matrix(0 1 -1 0 38.15 -174.6)" id="arc4">
                <g>
                  <g id="Layer7_0_FILL4">
                    <path fill="#FFF" stroke="none" d="M281.6 121Q242.3 160.6 186.6 160.6 130.9 160.6 91.55 121 55.95 85.65 52.4 37 52 31.6 52 26 52 15.2 44.3 7.7 36.8 0 26.05 0 15.3 0 7.8 7.7 .05 15.2 .05 26 .05 66.75 15.3 101.25 28.95 132.15 54.85 158 109.35 212.55 186.6 212.55 263.6 212.55 318.35 158 329.8 146.55 338.85 134.15L300.35 98.25Q292.45 110.25 281.6 121Z" fill-opacity="1"/>
                  </g>
                </g>
              </g>
              <animate attributeName="display" fill="freeze" repeatCount="1" dur="1.667s" keyTimes="0;.767;1" values="inline;none;none"/>
            </g>
          </g>
        </mask>
        <g mask="url(#mask_1)">
          <g>
            <g transform="matrix(.866 .5 -.5 .866 -136.45 -103.9)" id="arc-mask5">
              <g>
                <g id="Layer8_0_FILL5">
                  <path fill="#F37B20" stroke="none" d="M373.05 26Q373.05 15.2 365.35 7.7 357.85 0 347.1 0 336.3 0 328.8 7.7 321.1 15.2 321.1 26 321.1 81.7 281.55 121 242.25 160.6 186.55 160.6 130.85 160.6 91.5 121 55.913 85.638 52.35 37 51.95 31.582 51.95 26 51.95 15.2 44.25 7.7 36.75 0 26 0 15.25 0 7.75 7.7 0 15.2 0 26 0 66.753 15.25 101.25 28.910 132.133 54.8 158 109.3 212.55 186.55 212.55 263.55 212.55 318.3 158 373.05 103.25 373.05 26Z"/>
                </g>
              </g>
              <animateTransform attributeName="transform" additive="replace" type="translate" dur="1.667s" keyTimes="0;.23299;.75;1" values="12.113,11.963;12.113,11.963;12.171,12.091;12.171,12.091" fill="freeze"/>
              <animateTransform attributeName="transform" additive="sum" type="rotate" dur="1.667s" keyTimes="0;.23299;.75;1" values="30.001,0,0;30.001,0,0;-5.779,0,0;-5.779,0,0" fill="freeze"/>
              <animateTransform attributeName="transform" additive="sum" type="scale" dur="1.667s" keyTimes="0;.23299;.75;1" values="1,.999;1,.999;.998,.998;.998,.998" fill="freeze"/>
              <animateTransform attributeName="transform" additive="sum" type="translate" dur="1.667s" keyTimes="0;.23299;.75;1" values="-186.6,-26.05;-186.6,-26.05;-186.5,-26.1;-186.5,-26.1" fill="freeze"/>
            </g>
            <animate attributeName="display" fill="freeze" repeatCount="1" dur="1.667s" keyTimes="0;.767;1" values="inline;none;none"/>
          </g>
        </g>
        <mask id="mask_1">
          <g>
            <g>
              <g transform="matrix(-.866 -.5 .5 -.866 160.65 127.9)" id="arc5">
                <g>
                  <g id="Layer7_0_FILL5">
                    <path fill="#FFF" stroke="none" d="M281.6 121Q242.3 160.6 186.6 160.6 130.9 160.6 91.55 121 55.95 85.65 52.4 37 52 31.6 52 26 52 15.2 44.3 7.7 36.8 0 26.05 0 15.3 0 7.8 7.7 .05 15.2 .05 26 .05 66.75 15.3 101.25 28.95 132.15 54.85 158 109.35 212.55 186.6 212.55 263.6 212.55 318.35 158 329.8 146.55 338.85 134.15L300.35 98.25Q292.45 110.25 281.6 121Z" fill-opacity="1"/>
                  </g>
                </g>
              </g>
              <animate attributeName="display" fill="freeze" repeatCount="1" dur="1.667s" keyTimes="0;.767;1" values="inline;none;none"/>
            </g>
          </g>
        </mask>
        <g mask="url(#mask_)">
          <g>
            <g transform="matrix(-.866 .5 -.5 -.866 186.75 -58.75)" id="arc-mask6">
              <g>
                <g id="Layer8_0_FILL6">
                  <path fill="#F37B20" stroke="none" d="M373.05 26Q373.05 15.2 365.35 7.7 357.85 0 347.1 0 336.3 0 328.8 7.7 321.1 15.2 321.1 26 321.1 81.7 281.55 121 242.25 160.6 186.55 160.6 130.85 160.6 91.5 121 55.913 85.638 52.35 37 51.95 31.582 51.95 26 51.95 15.2 44.25 7.7 36.75 0 26 0 15.25 0 7.75 7.7 0 15.2 0 26 0 66.753 15.25 101.25 28.910 132.133 54.8 158 109.3 212.55 186.55 212.55 263.55 212.55 318.3 158 373.05 103.25 373.05 26Z"/>
                </g>
              </g>
              <animateTransform attributeName="transform" additive="replace" type="translate" dur="1.667s" keyTimes="0;.23299;.75;1" values="12.206,12.018;12.206,12.018;12.379,11.923;12.379,11.923" fill="freeze"/>
              <animateTransform attributeName="transform" additive="sum" type="rotate" dur="1.667s" keyTimes="0;.23299;.75;1" values="150,0,0;150,0,0;114.073,0,0;114.073,0,0" fill="freeze"/>
              <animateTransform attributeName="transform" additive="sum" type="scale" dur="1.667s" keyTimes="0;.23299;.75;1" values="1,.999;1,.999;.997,.997;.997,.997" fill="freeze"/>
              <animateTransform attributeName="transform" additive="sum" type="translate" dur="1.667s" keyTimes="0;.23299;.75;1" values="-186.55,-25.95;-186.55,-25.95;-186.45,-25.95;-186.45,-25.95" fill="freeze"/>
            </g>
            <animate attributeName="display" fill="freeze" repeatCount="1" dur="1.667s" keyTimes="0;.767;1" values="inline;none;none"/>
          </g>
        </g>
        <mask id="mask_">
          <g>
            <g>
              <g transform="matrix(.866 -.5 .5 .866 -162.25 82.75)" id="arc6">
                <g>
                  <g id="Layer7_0_FILL6">
                    <path fill="#FFF" stroke="none" d="M281.6 121Q242.3 160.6 186.6 160.6 130.9 160.6 91.55 121 55.95 85.65 52.4 37 52 31.6 52 26 52 15.2 44.3 7.7 36.8 0 26.05 0 15.3 0 7.8 7.7 .05 15.2 .05 26 .05 66.75 15.3 101.25 28.95 132.15 54.85 158 109.35 212.55 186.6 212.55 263.6 212.55 318.35 158 329.8 146.55 338.85 134.15L300.35 98.25Q292.45 110.25 281.6 121Z" fill-opacity="1"/>
                  </g>
                </g>
              </g>
              <animate attributeName="display" fill="freeze" repeatCount="1" dur="1.667s" keyTimes="0;.767;1" values="inline;none;none"/>
            </g>
          </g>
        </mask>
        <animateTransform attributeName="transform" additive="replace" type="translate" dur="1.667s" keyTimes="0;.117;.133;.15;.167;.183;.2;.217;.233;.25;.267;.283;.3;.317;.333;.35;.367;.383;.4;.417;.433;.45;.467;.483;.5;.517;.533;.55;.567;.583;.6;.617;.633;.65;.667;.683;.7;.717;.733;.75;1" values="249.8,253.8;249.8,253.8;249.841,253.871;249.801,253.772;249.843,253.84;249.794,253.866;249.796,253.849;249.824,253.788;249.802,253.791;249.778,253.785;249.803,253.801;249.732,253.816;249.765,253.902;249.88,253.864;249.779,253.846;249.767,253.904;249.805,253.867;249.796,253.809;249.792,253.93;249.788,253.85;249.817,253.847;249.731,253.835;249.808,253.81;249.741,253.903;249.755,253.872;249.837,253.775;249.877,253.789;249.844,253.739;249.811,253.762;249.816,253.767;249.808,253.749;249.766,253.831;249.782,253.868;249.784,253.866;249.841,253.837;249.759,253.785;249.802,253.818;249.726,253.861;249.799,253.816;249.761,253.789;249.761,253.789" fill="freeze"/>
        <animateTransform attributeName="transform" additive="sum" type="rotate" dur="1.667s" keyTimes="0;.117;.133;.15;.167;.183;.2;.217;.233;.25;.267;.283;.3;.317;.333;.35;.367;.383;.4;.417;.433;.45;.467;.483;.5;.517;.533;.55;.567;.583;.6;.617;.633;.65;.667;.683;.7;.717;.733;.75;1" values="0,0,0;0,0,0;5.554,0,0;11.3,0,0;17.051,0,0;22.803,0,0;28.561,0,0;34.318,0,0;40,0,0;45.656,0,0;51.422,0,0;57.187,0,0;62.951,0,0;68.712,0,0;74.474,0,0;80.23,0,0;85.981,0,0;91.543,0,0;97.293,0,0;103.05,0,0;108.807,0,0;114.568,0,0;120.33,0,0;126.095,0,0;131.864,0,0;137.629,0,0;143.396,0,0;149.161,0,0;154.923,0,0;160.687,0,0;166.444,0,0;172.199,0,0;177.95,0,0;183.51,0,0;189.265,0,0;195.02,0,0;200.779,0,0;206.541,0,0;212.25,0,0;218,0,0;218,0,0" fill="freeze"/>
        <animateTransform attributeName="transform" additive="sum" type="scale" dur="1.667s" keyTimes="0;.117;.133;.15;.167;.183;.2;.217;.233;.25;.3;.317;.333;.35;.367;.383;.4;.417;.433;.45;.567;.583;.6;.617;.633;.65;.667;.683;.7;.717;.733;.75;1" values="1,1;1,1;1,.999;1,.999;.998,.998;.998,.998;.997,.997;.997,.997;.998,.998;.997,.997;.997,.997;.998,.998;.998,.998;1,.999;1,1;1,1;1,.999;1,.999;.998,.998;.997,.997;.997,.997;.998,.998;1,.999;1,.999;1,1;1,1;1,.999;.998,.998;.998,.998;.997,.997;1,.999;.998,.998;.998,.998" fill="freeze"/>
        <animateTransform attributeName="transform" additive="sum" type="translate" dur="1.667s" keyTimes="0;.117;.133;.15;.167;.183;.2;.217;.233;.25;.267;.283;.3;.317;.333;.35;.367;.383;.4;.417;.433;.45;.467;.483;.5;.517;.533;.55;.567;.583;.6;.617;.633;.65;.667;.683;.7;.717;.733;1" values="-11.7,-10.85;-11.7,-10.85;-11.75,-10.9;-11.75,-10.8;-11.75,-10.85;-11.75,-10.9;-11.75,-10.9;-11.75,-10.85;-11.75,-10.85;-11.8,-10.8;-11.75,-10.85;-11.7,-10.85;-11.8,-10.85;-11.8,-10.75;-11.85,-10.85;-11.8,-10.85;-11.8,-10.75;-11.75,-10.8;-11.9,-10.8;-11.8,-10.8;-11.75,-10.75;-11.75,-10.8;-11.7,-10.75;-11.75,-10.75;-11.75,-10.75;-11.6,-10.75;-11.6,-10.75;-11.55,-10.7;-11.65,-10.8;-11.65,-10.8;-11.7,-10.85;-11.65,-10.75;-11.65,-10.75;-11.6,-10.75;-11.6,-10.75;-11.6,-10.8;-11.6,-10.8;-11.65,-10.7;-11.6,-10.85;-11.6,-10.85" fill="freeze"/>
      </g>
      <animate attributeName="display" fill="freeze" repeatCount="1" dur="1.667s" keyTimes="0;.767;1" values="inline;none;none"/>
    </g>
    <g>
      <g transform="translate(238.1 242.95)" id="spind60r1">
        <g mask="url(#mask_2)">
          <g>
            <g transform="matrix(0 -1 1 0 -13.85 198.45)" id="arc-mask7">
              <g>
                <g id="Layer8_0_FILL7">
                  <path fill="#F37B20" stroke="none" d="M373.05 26Q373.05 15.2 365.35 7.7 357.85 0 347.1 0 336.3 0 328.8 7.7 321.1 15.2 321.1 26 321.1 81.7 281.55 121 242.25 160.6 186.55 160.6 130.85 160.6 91.5 121 55.913 85.638 52.35 37 51.95 31.582 51.95 26 51.95 15.2 44.25 7.7 36.75 0 26 0 15.25 0 7.75 7.7 0 15.2 0 26 0 66.753 15.25 101.25 28.910 132.133 54.8 158 109.3 212.55 186.55 212.55 263.55 212.55 318.3 158 373.05 103.25 373.05 26Z"/>
                </g>
              </g>
              <animateTransform attributeName="transform" additive="replace" type="translate" dur="1.667s" keyTimes="0;.23299;.75;1" values="12.117,11.902;12.117,11.902;12.206,11.931;12.206,11.931" fill="freeze"/>
              <animateTransform attributeName="transform" additive="sum" type="rotate" dur="1.667s" keyTimes="0;.23299;.75;1" values="-90,0,0;-90,0,0;-116.814,0,0;-116.814,0,0" fill="freeze"/>
              <animateTransform attributeName="transform" additive="sum" type="scale" dur="1.667s" keyTimes="0;.23299;.75;1" values="1,1;1,1;.996,.996;.996,.996" fill="freeze"/>
              <animateTransform attributeName="transform" additive="sum" type="translate" dur="1.667s" keyTimes="0;.23299;.75;1" values="-186.5,-25.95;-186.5,-25.95;-186.45,-25.95;-186.45,-25.95" fill="freeze"/>
            </g>
            <animate attributeName="display" fill="freeze" repeatCount="1" dur="1.667s" keyTimes="0;.767;1" values="inline;none;none"/>
          </g>
        </g>
        <mask id="mask_2">
          <g>
            <g>
              <g transform="matrix(0 1 -1 0 38.15 -174.6)" id="arc7">
                <g>
                  <g id="Layer7_0_FILL7">
                    <path fill="#FFF" stroke="none" d="M281.6 121Q242.3 160.6 186.6 160.6 130.9 160.6 91.55 121 55.95 85.65 52.4 37 52 31.6 52 26 52 15.2 44.3 7.7 36.8 0 26.05 0 15.3 0 7.8 7.7 .05 15.2 .05 26 .05 66.75 15.3 101.25 28.95 132.15 54.85 158 109.35 212.55 186.6 212.55 263.6 212.55 318.35 158 329.8 146.55 338.85 134.15L300.35 98.25Q292.45 110.25 281.6 121Z" fill-opacity="1"/>
                  </g>
                </g>
              </g>
              <animate attributeName="display" fill="freeze" repeatCount="1" dur="1.667s" keyTimes="0;.767;1" values="inline;none;none"/>
            </g>
          </g>
        </mask>
        <g mask="url(#mask_1)">
          <g>
            <g transform="matrix(.866 .5 -.5 .866 -136.45 -103.9)" id="arc-mask8">
              <g>
                <g id="Layer8_0_FILL8">
                  <path fill="#F37B20" stroke="none" d="M373.05 26Q373.05 15.2 365.35 7.7 357.85 0 347.1 0 336.3 0 328.8 7.7 321.1 15.2 321.1 26 321.1 81.7 281.55 121 242.25 160.6 186.55 160.6 130.85 160.6 91.5 121 55.913 85.638 52.35 37 51.95 31.582 51.95 26 51.95 15.2 44.25 7.7 36.75 0 26 0 15.25 0 7.75 7.7 0 15.2 0 26 0 66.753 15.25 101.25 28.910 132.133 54.8 158 109.3 212.55 186.55 212.55 263.55 212.55 318.3 158 373.05 103.25 373.05 26Z"/>
                </g>
              </g>
              <animateTransform attributeName="transform" additive="replace" type="translate" dur="1.667s" keyTimes="0;.23299;.75;1" values="12.113,11.963;12.113,11.963;12.171,12.091;12.171,12.091" fill="freeze"/>
              <animateTransform attributeName="transform" additive="sum" type="rotate" dur="1.667s" keyTimes="0;.23299;.75;1" values="30.001,0,0;30.001,0,0;-5.779,0,0;-5.779,0,0" fill="freeze"/>
              <animateTransform attributeName="transform" additive="sum" type="scale" dur="1.667s" keyTimes="0;.23299;.75;1" values="1,.999;1,.999;.998,.998;.998,.998" fill="freeze"/>
              <animateTransform attributeName="transform" additive="sum" type="translate" dur="1.667s" keyTimes="0;.23299;.75;1" values="-186.6,-26.05;-186.6,-26.05;-186.5,-26.1;-186.5,-26.1" fill="freeze"/>
            </g>
            <animate attributeName="display" fill="freeze" repeatCount="1" dur="1.667s" keyTimes="0;.767;1" values="inline;none;none"/>
          </g>
        </g>
        <mask id="mask_1">
          <g>
            <g>
              <g transform="matrix(-.866 -.5 .5 -.866 160.65 127.9)" id="arc8">
                <g>
                  <g id="Layer7_0_FILL8">
                    <path fill="#FFF" stroke="none" d="M281.6 121Q242.3 160.6 186.6 160.6 130.9 160.6 91.55 121 55.95 85.65 52.4 37 52 31.6 52 26 52 15.2 44.3 7.7 36.8 0 26.05 0 15.3 0 7.8 7.7 .05 15.2 .05 26 .05 66.75 15.3 101.25 28.95 132.15 54.85 158 109.35 212.55 186.6 212.55 263.6 212.55 318.35 158 329.8 146.55 338.85 134.15L300.35 98.25Q292.45 110.25 281.6 121Z" fill-opacity="1"/>
                  </g>
                </g>
              </g>
              <animate attributeName="display" fill="freeze" repeatCount="1" dur="1.667s" keyTimes="0;.767;1" values="inline;none;none"/>
            </g>
          </g>
        </mask>
        <g mask="url(#mask_)">
          <g>
            <g transform="matrix(-.866 .5 -.5 -.866 186.75 -58.75)" id="arc-mask9">
              <g>
                <g id="Layer8_0_FILL9">
                  <path fill="#F37B20" stroke="none" d="M373.05 26Q373.05 15.2 365.35 7.7 357.85 0 347.1 0 336.3 0 328.8 7.7 321.1 15.2 321.1 26 321.1 81.7 281.55 121 242.25 160.6 186.55 160.6 130.85 160.6 91.5 121 55.913 85.638 52.35 37 51.95 31.582 51.95 26 51.95 15.2 44.25 7.7 36.75 0 26 0 15.25 0 7.75 7.7 0 15.2 0 26 0 66.753 15.25 101.25 28.910 132.133 54.8 158 109.3 212.55 186.55 212.55 263.55 212.55 318.3 158 373.05 103.25 373.05 26Z"/>
                </g>
              </g>
              <animateTransform attributeName="transform" additive="replace" type="translate" dur="1.667s" keyTimes="0;.23299;.75;1" values="12.206,12.018;12.206,12.018;12.379,11.923;12.379,11.923" fill="freeze"/>
              <animateTransform attributeName="transform" additive="sum" type="rotate" dur="1.667s" keyTimes="0;.23299;.75;1" values="150,0,0;150,0,0;114.073,0,0;114.073,0,0" fill="freeze"/>
              <animateTransform attributeName="transform" additive="sum" type="scale" dur="1.667s" keyTimes="0;.23299;.75;1" values="1,.999;1,.999;.997,.997;.997,.997" fill="freeze"/>
              <animateTransform attributeName="transform" additive="sum" type="translate" dur="1.667s" keyTimes="0;.23299;.75;1" values="-186.55,-25.95;-186.55,-25.95;-186.45,-25.95;-186.45,-25.95" fill="freeze"/>
            </g>
            <animate attributeName="display" fill="freeze" repeatCount="1" dur="1.667s" keyTimes="0;.767;1" values="inline;none;none"/>
          </g>
        </g>
        <mask id="mask_">
          <g>
            <g>
              <g transform="matrix(.866 -.5 .5 .866 -162.25 82.75)" id="arc9">
                <g>
                  <g id="Layer7_0_FILL9">
                    <path fill="#FFF" stroke="none" d="M281.6 121Q242.3 160.6 186.6 160.6 130.9 160.6 91.55 121 55.95 85.65 52.4 37 52 31.6 52 26 52 15.2 44.3 7.7 36.8 0 26.05 0 15.3 0 7.8 7.7 .05 15.2 .05 26 .05 66.75 15.3 101.25 28.95 132.15 54.85 158 109.35 212.55 186.6 212.55 263.6 212.55 318.35 158 329.8 146.55 338.85 134.15L300.35 98.25Q292.45 110.25 281.6 121Z" fill-opacity="1"/>
                  </g>
                </g>
              </g>
              <animate attributeName="display" fill="freeze" repeatCount="1" dur="1.667s" keyTimes="0;.767;1" values="inline;none;none"/>
            </g>
          </g>
        </mask>
        <animateTransform attributeName="transform" additive="replace" type="translate" dur="1.667s" keyTimes="0;.017;.033;.05;.067;.083;.1;.117;.133;.15;.167;.183;.2;.217;.233;.25;.267;.283;.3;.317;.333;.35;.367;.383;.4;.417;.433;.45;.467;.483;.5;.517;.533;.55;.567;.583;.6;.617;.633;.65;.667;.683;.7;.717;.733;.75;1" values="249.8,253.8;249.841,253.871;249.801,253.772;249.828,253.837;249.795,253.866;249.776,253.781;249.796,253.829;249.797,253.839;249.864,253.821;249.774,253.859;249.853,253.881;249.833,253.813;249.771,253.855;249.824,253.902;249.825,253.832;249.811,253.909;249.795,253.859;249.795,253.885;249.777,253.92;249.833,253.924;249.78,253.833;249.73,253.81;249.768,253.939;249.736,253.898;249.814,253.781;249.754,253.798;249.809,253.78;249.822,253.804;249.82,253.801;249.783,253.778;249.85,253.853;249.847,253.773;249.836,253.758;249.825,253.812;249.839,253.783;249.739,253.838;249.829,253.846;249.749,253.821;249.768,253.739;249.765,253.764;249.879,253.828;249.908,253.825;249.829,253.726;249.843,253.809;249.833,253.815;249.815,253.734;249.815,253.734" fill="freeze"/>
        <animateTransform attributeName="transform" additive="sum" type="rotate" dur="1.667s" keyTimes="0;.017;.033;.05;.067;.083;.1;.117;.133;.15;.167;.183;.2;.217;.233;.25;.267;.283;.3;.317;.333;.35;.367;.383;.4;.417;.433;.45;.467;.483;.5;.517;.533;.55;.567;.583;.6;.617;.633;.65;.667;.683;.7;.717;.733;.75;1" values="0,0,0;5.554,0,0;11.3,0,0;17.048,0,0;22.801,0,0;28.555,0,0;34.312,0,0;39.882,0,0;45.641,0,0;51.402,0,0;57.16,0,0;62.916,0,0;68.671,0,0;74.233,0,0;79.982,0,0;85.727,0,0;91.28,0,0;97.023,0,0;102.772,0,0;108.522,0,0;114.086,0,0;119.842,0,0;125.598,0,0;131.356,0,0;137.116,0,0;142.874,0,0;148.444,0,0;154.2,0,0;159.955,0,0;165.706,0,0;171.453,0,0;177.198,0,0;182.75,0,0;188.306,0,0;194.054,0,0;199.804,0,0;205.56,0,0;211.316,0,0;217.074,0,0;222.644,0,0;228.403,0,0;234.16,0,0;239.918,0,0;245.673,0,0;251.426,0,0;257,0,0;257,0,0" fill="freeze"/>
        <animateTransform attributeName="transform" additive="sum" type="scale" dur="1.667s" keyTimes="0;.017;.033;.05;.067;.083;.183;.2;.217;.233;.25;.267;.283;.3;.317;.333;.35;.45;.467;.483;.5;.517;.533;.55;.567;.583;.6;.717;.733;.75;1" values="1,1;1,.999;1,.999;.998,.998;.998,.998;.997,.997;.997,.997;.998,.998;.998,.998;1,.999;1,.999;1,1;1,.999;1,.999;.998,.998;.998,.998;.997,.997;.997,.997;.998,.998;.998,.998;1,.999;1,1;1,1;1,.999;.998,.998;.998,.998;.997,.997;.997,.997;.998,.998;1,.999;1,.999" fill="freeze"/>
        <animateTransform attributeName="transform" additive="sum" type="translate" dur="1.667s" keyTimes="0;.017;.033;.05;.067;.083;.1;.117;.133;.15;.167;.183;.2;.217;.233;.25;.267;.283;.3;.317;.333;.35;.367;.383;.4;.417;.433;.45;.467;.483;.5;.517;.533;.55;.567;.583;.6;.617;.633;.65;.667;.683;.7;.717;.733;.75;1" values="-11.7,-10.85;-11.75,-10.9;-11.75,-10.8;-11.75,-10.9;-11.75,-10.9;-11.7,-10.85;-11.75,-10.9;-11.8,-10.85;-11.85,-10.8;-11.8,-10.8;-11.75,-10.8;-11.75,-10.75;-11.75,-10.85;-11.8,-10.75;-11.8,-10.8;-11.8,-10.75;-11.8,-10.75;-11.85,-10.8;-11.8,-10.75;-11.8,-10.7;-11.75,-10.75;-11.75,-10.8;-11.75,-10.75;-11.8,-10.75;-11.7,-10.75;-11.7,-10.8;-11.6,-10.8;-11.65,-10.75;-11.65,-10.7;-11.7,-10.75;-11.65,-10.75;-11.55,-10.8;-11.6,-10.85;-11.55,-10.75;-11.6,-10.85;-11.6,-10.75;-11.6,-10.85;-11.65,-10.85;-11.7,-10.85;-11.6,-10.85;-11.55,-10.9;-11.55,-10.95;-11.65,-10.95;-11.6,-10.95;-11.6,-10.9;-11.75,-10.9;-11.75,-10.9" fill="freeze"/>
      </g>
      <animate attributeName="display" fill="freeze" repeatCount="1" dur="1.667s" keyTimes="0;.767;1" values="inline;none;none"/>
    </g>
    <g display="none">
      <g transform="matrix(1 0 0 .996 -11.95 -10.9)" id="bg">
        <g>
          <g id="Layer1_0_FILL1">
            <path fill="#FFF" stroke="none" d="M516.45 .2L7 .2 7 621.7 516.45 621.7 516.45 .2Z"/>
          </g>
        </g>
      </g>
      <animate attributeName="display" fill="freeze" repeatCount="1" dur="1.667s" keyTimes="0;.75;1" values="none;inline;inline"/>
    </g>
    <g display="none">
      <g id="shadow" transform="matrix(1 0 0 1.37 77.9 527.7)" opacity="0">
        <animate attributeName="opacity" dur="1.667s" keyTimes="0;.783;.983;1" values="0;0;1;1" fill="freeze"/>
        <g>
          <g id="Layer6_0_FILL">
            <path fill="url(#Gradient_1)" stroke="none" d="M292.75 -20.25Q242.55 -31.5 171.5 -31.5 100.45 -31.5 50.2 -20.25 0 -8.8 0 7.3 0 23.35 50.2 34.6 100.45 46.1 171.5 46.1 242.55 46.1 292.75 34.6 343 23.35 343 7.3 343 -8.8 292.75 -20.25Z"/>
          </g>
        </g>
      </g>
      <animate attributeName="display" fill="freeze" repeatCount="1" dur="1.667s" keyTimes="0;.783;1" values="none;inline;inline"/>
    </g>
    <g display="none">
      <g id="still" transform="matrix(-.225 -.974 .974 -.225 241.9 267.25)">
        <animateTransform attributeName="transform" additive="replace" type="translate" dur="1.667s" keyTimes="0;.75;.767;1" values="249.845,253.747;249.845,253.747;249.868,253.756;249.868,253.756" fill="freeze"/>
        <animateTransform attributeName="transform" additive="sum" type="rotate" dur="1.667s" keyTimes="0;.75;.767;1" values="-103,0,0;-103,0,0;-102,0,0;-102,0,0" fill="freeze"/>
        <animateTransform attributeName="transform" additive="sum" type="scale" dur="1.667s" keyTimes="0;1" values="1,.999;1,.999" fill="freeze"/>
        <animateTransform attributeName="transform" additive="sum" type="translate" dur="1.667s" keyTimes="0;.75;.767;1" values="-11.4,-10.8;-11.4,-10.8;-11.3,-10.75;-11.3,-10.75" fill="freeze"/>
        <g>
          <g id="Layer5_0_FILL">
            <path fill="#F37B20" stroke="none" d="M142.3 -122.4Q133.199 -131.343 122.95 -138.85 114.767 -144.814 105.85 -149.85 84.578 -162.457 60.65 -168.65 36.578 -175.336 11.55 -175 -13.860 -175.149 -38.35 -168 -51.066 -164.546 -63.05 -159.25 -71.407 -155.558 -79.4 -151 -101.493 -138.835 -119.2 -121 -136.807 -103.925 -149.05 -82.65 -160.750 -63.176 -167.05 -41.45L-169.3 -33.3Q-172.502 -21.042 -173.85 -8.55 -175.245 4.457 -174.7 17.7 -174.230 37.439 -169.4 56.55 -163.582 81.240 -151.1 103.15 -141.487 120.723 -128.3 135.5 -114.952 151.083 -98.75 162.95 -86.578 171.822 -72.8 178.6 -56.829 186.913 -39.45 191.65L-23.25 195.5Q-20.851 195.966 -18.5 196.35L-1 198.45Q34.258 201.392 67.75 190.5 77.815 187.436 87.4 183.2 97.934 178.546 107.85 172.45 120.654 165.004 131.85 155.45L140.5 147.8 149.35 138.9Q162.232 125.260 171.85 109.05 185.290 87.567 192 63.25 196.513 48.016 198.2 32.4 199.643 18.923 198.9 5.15L197.85 -8.35Q197.134 -15.668 195.7 -22.9L192.5 -37Q187.186 -57.832 176.85 -76.7 163.361 -102.416 142.3 -122.4M14.4 -122.65Q17.879 -122.583 21.25 -122.4 33.973 -121.343 47 -117.8 60.421 -114.247 72.2 -108.6 75.896 -106.708 79.55 -104.6 83.855 -102.114 87.9 -99.45 97.967 -92.341 107.15 -83.1 115.689 -74.625 122.4 -65.4 122.647 -65.021 122.9 -64.65 125.051 -61.475 127.05 -58.15 127.712 -56.650 128.55 -55.2 134.643 -44.642 138.7 -33.85 140.562 -28.475 142.05 -22.85 144.738 -12.945 146 -3.25 146.75 4.177 146.75 11.9 146.75 14.457 146.65 16.95 146.648 17.390 146.6 17.8L146.6 17.8Q146.546 18.696 146.5 19.6 145.526 33.068 141.8 46.9 137.971 61.393 131.7 74 130.998 75.329 130.25 76.65 129.408 77.836 128.65 79.15 124.879 85.681 120.6 91.6 114.589 99.557 107.15 106.95 96.858 117.314 85.45 124.95 82.441 126.886 79.3 128.7 78.083 129.402 76.85 130.05 63.052 137.414 46.9 141.7 35.241 144.871 23.85 146.05 23.497 146.074 23.15 146.1 17.75 146.5 12.15 146.5 11.015 146.5 9.9 146.55 2.286 146.464 -5.05 145.6 -13.843 144.336 -22.8 141.9 -30.635 139.825 -37.95 137 -46.647 133.436 -55.2 128.5 -60.395 125.500 -65.2 122.2 -74.382 115.533 -82.8 107.05 -94.261 95.674 -102.45 82.9L-102.75 82.4Q-103.413 80.835 -104.3 79.3 -108.385 72.221 -111.55 65 -115.166 56.250 -117.7 46.65 -120.466 36.457 -121.7 26.45 -122.4 19.402 -122.4 12.05 -122.4 7.891 -122.2 3.8 -121.206 -9.313 -117.55 -22.8 -113.673 -37.529 -107.25 -50.35L-106.8 -51.25Q-106.367 -51.989 -105.95 -52.75 -105.042 -53.976 -104.25 -55.35 -101.021 -60.944 -97.45 -66.1 -90.962 -74.888 -82.8 -83 -73.324 -92.542 -62.9 -99.8 -59.116 -102.281 -55.1 -104.6 -49.903 -107.599 -44.65 -110.1 -34.177 -114.767 -22.5 -117.85 -12.546 -120.551 -2.8 -121.8 -.804 -122.003 1.2 -122.15 6.6 -122.55 12.2 -122.55 13.332 -122.55 14.4 -122.65Z"/>
          </g>
        </g>
      </g>
      <animate attributeName="display" fill="freeze" repeatCount="1" dur="1.667s" keyTimes="0;.75;1" values="none;inline;inline"/>
    </g>
    <g display="none">
      <g id="middle" transform="translate(-134.95 634.3)">
        <animateTransform attributeName="transform" additive="replace" type="translate" dur="1.667s" keyTimes="0;.783;.8;.817;.833;.85;.866;.883;.9;.916;.933;.95;.966;.983;1" values="-134.95,634.3;-134.95,634.3;-115.3,593.35;-95.65,552.35;-75.95,511.35;-56.3,470.35;-36.65,429.35;-16.95,388.35;2.7,347.35;22.35,306.35;42.05,265.35;61.7,224.35;81.35,183.35;101.05,142.35;101.05,142.35" fill="freeze"/>
        <g>
          <g id="Layer4_0_FILL">
            <path fill="#FFF" stroke="none" d="M-28.95 261.05L35.05 353.45 264.05 -130.45 -28.95 261.05Z"/>
          </g>
        </g>
      </g>
      <animate attributeName="display" fill="freeze" repeatCount="1" dur="1.667s" keyTimes="0;.783;1" values="none;inline;inline"/>
    </g>
    <g display="none">
      <g id="left" transform="translate(-134.95 634.3)">
        <animateTransform attributeName="transform" additive="replace" type="translate" dur="1.667s" keyTimes="0;.783;.8;.817;.833;.85;.866;.883;.9;.916;.933;.95;.966;.983;1" values="-134.95,634.3;-134.95,634.3;-115.4,593.3;-95.8,552.3;-76.2,511.25;-56.6,470.25;-37,429.25;-17.4,388.2;2.15,347.2;21.75,306.2;41.35,265.15;60.95,224.15;80.55,183.15;100.15,142.1;100.15,142.1" fill="freeze"/>
        <g>
          <g id="Layer3_0_FILL">
            <path fill="#F37B20" stroke="none" d="M166.8 0L13.85 123.7 1.1 222.3 166.8 0Z"/>
          </g>
        </g>
      </g>
      <animate attributeName="display" fill="freeze" repeatCount="1" dur="1.667s" keyTimes="0;.783;1" values="none;inline;inline"/>
    </g>
    <g display="none">
      <g id="right" transform="translate(-96.7 542.1)">
        <animateTransform attributeName="transform" additive="replace" type="translate" dur="1.667s" keyTimes="0;.783;.8;.817;.833;.85;.866;.883;.9;.916;.933;.95;.966;.983;1" values="-96.7,542.1;-96.7,542.1;-77.05,501.15;-57.4,460.15;-37.7,419.15;-18.05,378.15;1.6,337.15;21.3,296.15;40.95,255.15;60.6,214.15;80.3,173.15;99.95,132.15;119.6,91.15;139.3,50.15;139.3,50.15" fill="freeze"/>
        <g>
          <g id="Layer2_0_FILL">
            <path fill="#F37B20" stroke="none" d="M122.7 369.85L207.65 0 0 436.8 122.7 369.85Z"/>
          </g>
        </g>
      </g>
      <animate attributeName="display" fill="freeze" repeatCount="1" dur="1.667s" keyTimes="0;.783;1" values="none;inline;inline"/>
    </g>
    <g>
      <g transform="translate(-12 -9.95)" opacity="1" id="bg">
        <g>
          <g id="Layer1_0_FILL2">
            <path fill="#FFF" stroke="none" d="M516.45 .2L7 .2 7 621.7 516.45 621.7 516.45 .2Z"/>
          </g>
        </g>
        <animate attributeName="opacity" dur="1.667s" keyTimes="0;.117;1" values="1;0;0" fill="freeze"/>
      </g>
      <animate attributeName="display" fill="freeze" repeatCount="1" dur="1.667s" keyTimes="0;.133;1" values="inline;none;none"/>
    </g>
  </g>
</svg>